<svg width="74" height="82" viewBox="0 0 74 82" fill="none" xmlns="http://www.w3.org/2000/svg">
<g clip-path="url(#clip0)" filter="url(#filter0_d)">
<path d="M38.1665 71.7998H41.4566V59.0874C41.4566 58.4798 41.949 57.9872 42.5568 57.9872C43.1644 57.9872 43.6569 58.4798 43.6569 59.0874V71.7998H45.6961C46.3037 71.7998 46.7963 72.2924 46.7963 72.9C46.7963 73.5076 46.3039 74.0001 45.6961 74.0001H38.1666C37.559 74.0001 37.0665 73.5076 37.0665 72.9C37.0665 72.2924 37.5589 71.7998 38.1665 71.7998Z" fill="#F0A70A"/>
<path d="M26.1876 71.7998H29.4777V59.0874C29.4777 58.4798 29.9702 57.9872 30.5779 57.9872C31.1857 57.9872 31.6781 58.4798 31.6781 59.0874V71.7998H33.7173C34.3249 71.7998 34.8174 72.2924 34.8174 72.9C34.8174 73.5076 34.3247 74 33.7171 74H26.1876C25.58 74 25.0875 73.5074 25.0875 72.8998C25.0875 72.2922 25.58 71.7998 26.1876 71.7998Z" fill="#F0A70A"/>
<path d="M6.60926 14.5945H11.347C13.4122 14.5945 15.0565 16.2842 15.0477 18.3496V18.3892C15.0477 18.3892 13.5765 23.0873 13.0324 29.5603C12.3415 37.7318 13.1247 48.7313 20.1991 56.6771C24.1317 61.0965 29.7905 63.9773 36.1697 63.9773H37.9298C46.7408 63.9773 54.292 58.5824 57.4588 50.9155C58.4856 48.4321 59.0518 45.7097 59.0518 42.8554L45.8139 32.6113L39.0872 27.4056C36.6845 25.5456 35.14 22.8174 34.7586 19.8427C34.6956 19.3646 34.6648 18.879 34.6648 18.3892C34.6648 16.2784 33.9974 14.3246 32.8635 12.7244C31.7282 11.1241 30.1264 9.88031 28.2563 9.188C27.9161 9.06183 27.7136 8.71423 27.7546 8.35493C28.2783 3.7623 24.5981 -0.170103 20.0158 0.00593572C15.061 0.196572 11.5626 5.17929 13.2349 9.9611C13.3258 10.2221 13.2129 10.5112 12.9636 10.6329L6.42744 13.7997C6.02694 13.9931 6.16482 14.5945 6.60926 14.5945Z" fill="#F87B67"/>
<path d="M22.6209 8.35477C22.5799 8.71408 22.7822 9.06182 23.1226 9.18785C24.9928 9.88016 26.5945 11.124 27.7298 12.7242C28.8636 14.3245 29.5311 16.2783 29.5311 18.389C29.5311 18.879 29.5619 19.3644 29.6249 19.8426C30.0063 22.8171 31.5508 25.5455 33.9535 27.4054C34.5534 27.8689 37.8669 30.4344 41.9505 33.5938C49.4326 39.3835 59.4934 47.1678 60.1652 47.6885C62.2833 49.3284 63.1047 52.0229 62.4622 54.4592L65.5895 56.8794C65.8593 57.0877 66.2467 57.0378 66.4549 56.7694C68.6434 53.9428 68.1256 49.8769 65.2991 47.6884C63.9133 46.6161 40.1567 28.2336 39.0873 27.4054C36.6847 25.5455 35.1402 22.8173 34.7588 19.8426C34.6958 19.3644 34.665 18.8788 34.665 18.389C34.665 16.2783 33.9975 14.3245 32.8637 12.7242C31.7284 11.124 30.1266 9.88016 28.2565 9.18785C27.9162 9.06168 27.7137 8.71408 27.7548 8.35477C28.2784 3.76215 24.5982 -0.170256 20.016 0.00578313C19.2166 0.0365683 18.4554 0.192084 17.7483 0.451662C20.8842 1.59722 23.0286 4.77575 22.6209 8.35477Z" fill="#F76C57"/>
<path d="M13.0324 29.5602C24.6216 38.9419 45.3445 32.7829 45.3445 32.7829L45.8139 32.6113L59.0518 42.8554C59.0518 45.7097 58.4856 48.4321 57.4588 50.9155C54.292 58.5824 46.7408 63.9773 37.9298 63.9773H36.1697C29.7905 63.9773 24.1317 61.0965 20.1991 56.6771C13.1247 48.7314 12.3415 37.7319 13.0324 29.5602Z" fill="#766D78"/>
<path d="M24.4869 15.7293C23.3689 15.7293 22.4626 14.823 22.4626 13.705C22.4626 12.587 23.3689 11.6807 24.4869 11.6807C25.6049 11.6807 26.5112 12.587 26.5112 13.705C26.5112 14.823 25.6049 15.7293 24.4869 15.7293Z" fill="#444145"/>
<path d="M45.3446 32.7829L45.8141 32.6113L58.3855 42.3399L65.2992 47.6891C68.1255 49.8775 68.6428 53.9428 66.4544 56.7691C66.246 57.0383 65.8588 57.0875 65.5897 56.8791L57.7236 50.7916C57.6415 50.728 57.5217 50.7607 57.4828 50.857C57.475 50.8765 57.4671 50.896 57.459 50.9153L56.881 51.0797C56.881 51.0797 35.957 57.3267 29.8947 35.5213L29.8007 34.7572C38.1103 34.9332 45.3446 32.7829 45.3446 32.7829Z" fill="#544F56"/>
<path d="M41.9504 33.594C49.4326 39.3835 59.4934 47.1678 60.1652 47.6885C62.2833 49.3284 63.1047 52.0229 62.4622 54.4592L65.5895 56.8794C65.8593 57.0877 66.2467 57.0378 66.4549 56.7694C68.6434 53.9428 68.1256 49.8769 65.2991 47.6884L58.386 42.339C48.624 34.7867 45.8141 32.6112 45.8141 32.6112C44.764 32.9952 42.9838 33.3834 41.9504 33.594Z" fill="#444145"/>
<path d="M41.9504 33.594C49.4326 39.3835 59.4934 47.1678 60.1652 47.6885C62.2833 49.3284 63.1047 52.0229 62.4622 54.4592L65.5895 56.8794C65.8593 57.0877 66.2467 57.0378 66.4549 56.7694C68.6434 53.9428 68.1256 49.8769 65.2991 47.6884L58.386 42.339C48.624 34.7867 45.8141 32.6112 45.8141 32.6112C44.764 32.9952 42.9838 33.3834 41.9504 33.594Z" fill="#444145"/>
</g>
<defs>
<filter id="filter0_d" x="-4" y="0" width="82" height="82" filterUnits="userSpaceOnUse" color-interpolation-filters="sRGB">
<feFlood flood-opacity="0" result="BackgroundImageFix"/>
<feColorMatrix in="SourceAlpha" type="matrix" values="0 0 0 0 0 0 0 0 0 0 0 0 0 0 0 0 0 0 127 0"/>
<feOffset dy="4"/>
<feGaussianBlur stdDeviation="2"/>
<feColorMatrix type="matrix" values="0 0 0 0 0 0 0 0 0 0 0 0 0 0 0 0 0 0 0.25 0"/>
<feBlend mode="normal" in2="BackgroundImageFix" result="effect1_dropShadow"/>
<feBlend mode="normal" in="SourceGraphic" in2="effect1_dropShadow" result="shape"/>
</filter>
<clipPath id="clip0">
<rect width="74" height="74" fill="white" transform="matrix(-1 0 0 1 74 0)"/>
</clipPath>
</defs>
</svg>