<svg width="57" height="65" viewBox="0 0 57 65" fill="none" xmlns="http://www.w3.org/2000/svg">
<g filter="url(#filter0_d)">
<path d="M38.1948 8.60511C37.9047 6.15077 36.7199 4.00035 34.9892 2.46236C33.2597 0.924357 30.9844 0 28.5152 0C23.5824 0 19.4272 3.68719 18.8377 8.58674L16.8387 25.1936L19.9273 48.4376L36.4902 48.4393L40.1594 25.1958L38.1948 8.60511Z" fill="#FED22B"/>
<path d="M22.8519 8.58674L22.1634 14.3058C21.2932 21.5354 21.3382 28.846 22.2974 36.0644L23.9415 48.4374H19.9274L16.8387 25.1936L18.8377 8.58674C19.4272 3.68719 23.5824 0 28.5151 0C29.2022 0 29.8742 0.0711387 30.5233 0.207627C26.5092 1.04938 23.3599 4.36852 22.8519 8.58674Z" fill="#FDC202"/>
<path d="M32.4674 7.6604H29.2089C28.7338 7.6604 28.3488 7.27531 28.3488 6.80028C28.3488 6.32513 28.7339 5.94016 29.2089 5.94016H32.4674C32.9426 5.94016 33.3275 6.32524 33.3275 6.80028C33.3275 7.27531 32.9424 7.6604 32.4674 7.6604Z" fill="#E38803"/>
<path d="M34.6669 13.7735H31.4084C30.9332 13.7735 30.5482 13.3884 30.5482 12.9134C30.5482 12.4383 30.9333 12.0533 31.4084 12.0533H34.6669C35.1421 12.0533 35.5271 12.4384 35.5271 12.9134C35.5272 13.3886 35.1421 13.7735 34.6669 13.7735Z" fill="#E38803"/>
<path d="M25.592 11.7358H22.3334C21.8583 11.7358 21.4733 11.3507 21.4733 10.8757C21.4733 10.4005 21.8584 10.0156 22.3334 10.0156H25.592C26.0671 10.0156 26.4521 10.4006 26.4521 10.8757C26.4522 11.3508 26.0671 11.7358 25.592 11.7358Z" fill="#E38803"/>
<path d="M27.7425 30.2108H24.4839C24.0088 30.2108 23.6238 29.8257 23.6238 29.3507C23.6238 28.8757 24.0089 28.4906 24.4839 28.4906H27.7425C28.2177 28.4906 28.6026 28.8757 28.6026 29.3507C28.6026 29.8257 28.2177 30.2108 27.7425 30.2108Z" fill="#E38803"/>
<path d="M27.7425 20.9463H24.4839C24.0088 20.9463 23.6238 20.5612 23.6238 20.0862C23.6238 19.6112 24.0089 19.2261 24.4839 19.2261H27.7425C28.2177 19.2261 28.6026 19.6112 28.6026 20.0862C28.6026 20.5612 28.2177 20.9463 27.7425 20.9463Z" fill="#E38803"/>
<path d="M32.4674 26.4889H29.2089C28.7338 26.4889 28.3488 26.1038 28.3488 25.6288C28.3488 25.1537 28.7339 24.7686 29.2089 24.7686H32.4674C32.9426 24.7686 33.3275 25.1537 33.3275 25.6288C33.3275 26.1038 32.9424 26.4889 32.4674 26.4889Z" fill="#E38803"/>
<path d="M24.4575 51.8505V52.9572C24.4575 55.1903 26.2672 57 28.5002 57C30.7333 57 32.543 55.1903 32.543 52.9572V51.8505H24.4575Z" fill="#20B7A1"/>
<path d="M47.2856 21.9303C46.9936 19.9571 44.4564 19.3314 43.2777 20.94L31.8269 36.5672C29.6656 39.5168 28.5002 43.0791 28.5002 46.7367C28.5002 43.0792 27.335 39.5168 25.1735 36.5672L13.7228 20.94C12.544 19.3314 10.0068 19.957 9.71483 21.9303C8.27436 31.6618 7.76181 51.9625 28.5002 52.1804C49.2385 51.9625 48.7261 31.6618 47.2856 21.9303Z" fill="#24D3B5"/>
<path d="M30.5073 52.0925C29.8616 52.1442 29.1929 52.1739 28.5002 52.1808C7.76237 51.9629 8.27381 31.6619 9.71429 21.9306C10.0067 19.9569 12.5437 19.3318 13.7227 20.9397L13.944 21.2413C13.8408 21.4477 13.7662 21.6782 13.7283 21.9305C12.3361 31.3374 11.8119 50.6188 30.5073 52.0925Z" fill="#20B7A1"/>
</g>
<defs>
<filter id="filter0_d" x="-4" y="0" width="65" height="65" filterUnits="userSpaceOnUse" color-interpolation-filters="sRGB">
<feFlood flood-opacity="0" result="BackgroundImageFix"/>
<feColorMatrix in="SourceAlpha" type="matrix" values="0 0 0 0 0 0 0 0 0 0 0 0 0 0 0 0 0 0 127 0"/>
<feOffset dy="4"/>
<feGaussianBlur stdDeviation="2"/>
<feColorMatrix type="matrix" values="0 0 0 0 0 0 0 0 0 0 0 0 0 0 0 0 0 0 0.25 0"/>
<feBlend mode="normal" in2="BackgroundImageFix" result="effect1_dropShadow"/>
<feBlend mode="normal" in="SourceGraphic" in2="effect1_dropShadow" result="shape"/>
</filter>
</defs>
</svg>