<svg width="578" height="503" viewBox="0 0 578 503" fill="none" xmlns="http://www.w3.org/2000/svg">
<g clip-path="url(#clip0)" filter="url(#filter0_d)">
<path d="M170.247 351.195C155.479 365.616 169.867 374.049 169.867 374.049H173.628V352.262C173.628 350.744 171.419 350.05 170.247 351.195V351.195Z" fill="#D8CECC"/>
<path d="M202.536 351.195C201.364 350.051 199.155 350.744 199.155 352.262V374.049H202.916C202.916 374.049 217.305 365.615 202.536 351.195V351.195Z" fill="#D8CECC"/>
<path d="M203.275 377.01V453.785C203.275 461.747 198.336 470.055 189.295 471.037V492.095C189.295 493.699 187.765 495 185.879 495H181.107C179.222 495 177.692 493.699 177.692 492.095V471.168H119.755V492.095C119.755 493.699 118.225 495 116.339 495H111.571C109.686 495 108.155 493.699 108.155 492.095V438.113H153.605C156.265 438.113 158.769 437.558 160.972 436.573C166.041 434.313 169.498 429.793 169.498 424.584V377.249C169.498 369.37 176.841 362.782 186.101 362.651C195.563 362.518 203.275 368.996 203.275 377.01Z" fill="#EBE0DA"/>
<path d="M192.393 363.584C185.975 365.681 181.453 371.067 181.453 377.249V424.584C181.453 429.793 177.996 434.313 172.927 436.573C170.724 437.558 168.22 438.113 165.56 438.113H153.605C156.266 438.113 158.769 437.558 160.973 436.573C166.041 434.313 169.498 429.793 169.498 424.584V377.249C169.498 369.37 176.842 362.782 186.102 362.651C188.321 362.619 190.443 362.954 192.393 363.584V363.584Z" fill="#D8CECC"/>
<path d="M96.2792 438.112C92.1164 438.112 88.2617 439.98 86.1364 443.027C84.0389 446.034 83.962 451.637 85.7647 454.713C86.3346 455.686 87.9344 455.76 88.5962 454.83C90.2322 452.531 93.7527 448.788 100.234 446.831C102.775 446.065 117.564 445.716 120.259 445.716V438.112H96.2792Z" fill="#EBE0DA"/>
<path d="M188.319 388.584L190.477 385.402C191.333 384.14 190.262 382.564 188.549 382.564H184.234C182.521 382.564 181.45 384.141 182.306 385.402L184.464 388.584C185.32 389.846 187.463 389.846 188.319 388.584V388.584Z" fill="#766D78"/>
<path d="M193.545 390.482C192.13 390.482 190.983 391.457 190.983 392.66C190.983 394.009 190.177 395.201 188.953 395.904V385.593C188.953 384.39 187.806 383.414 186.391 383.414C184.977 383.414 183.83 384.39 183.83 385.593V395.904C182.606 395.201 181.8 394.009 181.8 392.66C181.8 391.457 180.653 390.482 179.238 390.482C173.952 390.482 177.08 400.929 186.391 400.929C195.692 400.929 198.853 390.482 193.545 390.482Z" fill="#766D78"/>
<path d="M177.156 380.11H169.499C168.084 380.11 166.937 379.135 166.937 377.931C166.937 376.728 168.084 375.753 169.499 375.753H177.156C178.571 375.753 179.717 376.728 179.717 377.931C179.717 379.135 178.57 380.11 177.156 380.11Z" fill="#766D78"/>
<path d="M203.277 380.11H195.621C194.206 380.11 193.059 379.135 193.059 377.931C193.059 376.728 194.206 375.753 195.621 375.753H203.278C204.693 375.753 205.839 376.728 205.839 377.931C205.839 379.135 204.693 380.11 203.277 380.11Z" fill="#766D78"/>
<path d="M160.972 436.573V450.897C160.972 456.483 155.647 461.012 149.079 461.012H131.649C125.08 461.012 119.755 456.483 119.755 450.897V438.113H153.605C156.265 438.113 158.769 437.558 160.972 436.573Z" fill="#24D3B5"/>
<path d="M189.295 483.816V492.095C189.295 493.699 187.765 495 185.879 495H181.107C179.222 495 177.692 493.699 177.692 492.095V483.816H189.295Z" fill="#A49CA7"/>
<path d="M143.603 461.012H131.649C125.08 461.012 119.755 456.483 119.755 450.897V438.113H131.71V450.897C131.71 456.483 137.035 461.012 143.603 461.012Z" fill="#20B7A1"/>
<path d="M119.758 438.113V471.168H119.755V492.095C119.755 493.699 118.225 495 116.339 495H111.571C109.686 495 108.155 493.699 108.155 492.095V438.113H119.758Z" fill="#D8CECC"/>
<path d="M108.155 483.816H119.755V492.095C119.755 493.699 118.225 495 116.339 495H111.571C109.686 495 108.155 493.699 108.155 492.095V483.816Z" fill="#A49CA7"/>
</g>
<g clip-path="url(#clip1)" filter="url(#filter1_d)">
<path d="M128.905 13.6523C128.445 9.75843 126.565 6.34671 123.819 3.90662C121.076 1.46653 117.466 0 113.548 0C105.722 0 99.1297 5.84986 98.1945 13.6232L95.023 39.9705L99.9231 76.8482L126.201 76.8508L132.022 39.9741L128.905 13.6523Z" fill="#FED22B"/>
<path d="M104.563 13.6232L103.471 22.6967C102.09 34.1668 102.162 45.7653 103.683 57.2176L106.292 76.8478H99.9233L95.023 39.9705L98.1945 13.6232C99.1297 5.84986 105.722 0 113.548 0C114.638 0 115.704 0.112864 116.734 0.329408C110.366 1.66488 105.369 6.93082 104.563 13.6232V13.6232Z" fill="#FDC202"/>
<path d="M119.818 12.1535H114.649C113.895 12.1535 113.284 11.5426 113.284 10.7889C113.284 10.0351 113.895 9.42429 114.649 9.42429H119.818C120.572 9.42429 121.183 10.0352 121.183 10.7889C121.183 11.5426 120.572 12.1535 119.818 12.1535Z" fill="#E38803"/>
<path d="M123.308 21.8523H118.138C117.384 21.8523 116.774 21.2413 116.774 20.4876C116.774 19.7338 117.385 19.123 118.138 19.123H123.308C124.062 19.123 124.673 19.734 124.673 20.4876C124.673 21.2415 124.062 21.8523 123.308 21.8523Z" fill="#E38803"/>
<path d="M108.91 18.6193H103.741C102.987 18.6193 102.376 18.0084 102.376 17.2547C102.376 16.5009 102.987 15.8901 103.741 15.8901H108.91C109.664 15.8901 110.275 16.501 110.275 17.2547C110.275 18.0085 109.664 18.6193 108.91 18.6193Z" fill="#E38803"/>
<path d="M112.322 47.9306H107.152C106.399 47.9306 105.788 47.3197 105.788 46.566C105.788 45.8123 106.399 45.2014 107.152 45.2014H112.322C113.076 45.2014 113.687 45.8123 113.687 46.566C113.687 47.3197 113.076 47.9306 112.322 47.9306V47.9306Z" fill="#E38803"/>
<path d="M112.322 33.2321H107.152C106.399 33.2321 105.788 32.6212 105.788 31.8675C105.788 31.1138 106.399 30.5029 107.152 30.5029H112.322C113.076 30.5029 113.687 31.1138 113.687 31.8675C113.687 32.6212 113.076 33.2321 112.322 33.2321V33.2321Z" fill="#E38803"/>
<path d="M119.818 42.0256H114.649C113.895 42.0256 113.284 41.4147 113.284 40.661C113.284 39.9074 113.895 39.2964 114.649 39.2964H119.818C120.572 39.2964 121.183 39.9074 121.183 40.661C121.183 41.4147 120.572 42.0256 119.818 42.0256Z" fill="#E38803"/>
<path d="M107.11 82.2628V84.0187C107.11 87.5615 109.982 90.4327 113.524 90.4327C117.067 90.4327 119.938 87.5615 119.938 84.0187V82.2628H107.11Z" fill="#20B7A1"/>
<path d="M143.328 34.7933C142.865 31.6627 138.84 30.6699 136.969 33.2222L118.802 58.0152C115.373 62.6949 113.524 68.3466 113.524 74.1495C113.524 68.3468 111.676 62.6949 108.246 58.0152L90.0794 33.2222C88.2093 30.6699 84.1839 31.6626 83.7207 34.7933C81.4353 50.2327 80.6221 82.4405 113.524 82.7861C146.427 82.4405 145.614 50.2327 143.328 34.7933V34.7933Z" fill="#24D3B5"/>
<path d="M116.709 82.6468C115.684 82.7288 114.623 82.7759 113.524 82.7869C80.623 82.4412 81.4344 50.2329 83.7198 34.7938C84.1838 31.6624 88.2087 30.6706 90.0792 33.2216L90.4304 33.7001C90.2666 34.0276 90.1483 34.3934 90.0882 34.7936C87.8793 49.718 87.0478 80.3086 116.709 82.6468Z" fill="#20B7A1"/>
</g>
<g clip-path="url(#clip2)" filter="url(#filter2_d)">
<path d="M443.177 312.082L449.096 305.226C451.748 302.156 451.936 297.665 449.55 294.384L433.489 272.301C431.457 269.506 428.209 267.853 424.754 267.853H413.522C411.47 267.853 409.807 266.19 409.807 264.138V239.568C409.807 236.324 405.941 234.638 403.564 236.846L394.518 245.246C393.831 245.884 392.928 246.238 391.99 246.238H375.548C373.496 246.238 371.833 244.575 371.833 242.523V237.101C371.833 235.049 370.169 233.386 368.118 233.386H351.63C349.097 233.386 347.634 230.513 349.124 228.465L351.273 225.511L353.053 223.301C353.988 222.065 354.075 220.332 353.173 218.988L333.94 195.944C333.197 194.837 333.103 193.418 333.694 192.223L361.198 136.665C361.675 135.702 362.546 134.992 363.587 134.72C413.618 121.617 410.721 122.286 411.565 122.314L424.503 122.745C426.68 122.818 428.452 121.011 428.338 118.837L425.752 106.319C425.655 104.475 424.217 102.982 422.378 102.814L412.796 101.943C409.93 101.682 408.435 98.4013 410.12 96.0673L418.817 84.0267C420.197 82.1153 419.471 79.4188 417.319 78.4585L385.656 64.3323C384.35 63.7497 382.826 63.968 381.736 64.8941L373.024 72.2994C372.264 72.9454 371.275 73.2588 370.282 73.1688L354.23 71.7092C353.165 71.6126 352.195 71.0624 351.565 70.1988L321.382 28.8371C321.135 28.4979 320.832 28.2036 320.486 27.9652L303.835 16.5189C302.875 15.8587 301.66 15.687 300.555 16.0554L294.798 17.9743C292.431 18.7637 291.499 21.6144 292.944 23.6491L301.181 35.2563C302.184 36.6692 302.077 38.5872 300.923 39.88L269.468 75.1318C269.166 75.4711 268.803 75.752 268.399 75.9604L232.795 94.3185C232.035 94.7103 231.433 95.353 231.092 96.1373L216.94 128.634C216.289 130.128 214.742 131.023 213.123 130.843L208.17 130.293C206.495 130.107 205.156 128.818 204.906 127.151L203.945 120.748C203.723 119.262 202.626 118.056 201.168 117.694L190.068 114.934L181.74 112.507C178.989 111.705 178.143 108.221 180.221 106.246L184.13 102.532C185.763 100.98 185.651 98.3437 183.893 96.9367L168.848 83.5749C167.221 82.2729 164.841 82.5638 163.576 84.2192L144.669 108.943C143.725 110.178 143.649 111.87 144.479 113.184L165.017 142.178C166.245 144.123 165.429 146.706 163.305 147.592L157.408 150.049C155.284 150.934 154.467 153.517 155.696 155.463L162.63 166.018C163.379 167.204 164.733 167.868 166.129 167.732L179.622 166.427C181.051 166.288 182.431 166.986 183.168 168.218L276.905 325.013C277.861 326.613 278.438 328.41 278.593 330.267L280.319 348.54C280.661 352.642 282.816 356.377 286.196 358.727L414.662 441.98C416.45 443.222 418.919 442.668 420.004 440.781L443.758 399.469C444.438 398.288 444.416 396.83 443.702 395.669L431.592 375.992C431.108 375.204 430.933 374.265 431.105 373.355L442.337 313.823C442.46 313.178 442.749 312.578 443.177 312.082Z" fill="#24D3B5"/>
<path d="M434.123 416.221L420.006 440.78C418.916 442.669 416.451 443.219 414.665 441.982L286.194 358.722C282.819 356.378 280.664 352.642 280.32 348.538L278.593 330.265C278.439 328.41 277.863 326.615 276.902 325.009L183.166 168.217C182.427 166.989 181.054 166.285 179.619 166.422L166.129 167.728C164.729 167.865 163.381 167.204 162.625 166.019L155.696 155.465C154.468 153.516 155.284 150.932 157.405 150.047L163.304 147.592C165.425 146.707 166.25 144.122 165.021 142.182L144.481 113.183C143.648 111.869 143.725 110.177 144.67 108.941L158.744 90.5384L175.197 113.758C176.425 115.707 175.609 118.283 173.488 119.168L167.589 121.632C165.468 122.516 164.643 125.092 165.88 127.041L192.681 147.127C193.437 148.312 194.785 148.973 196.184 148.835L209.674 147.53C211.108 147.392 212.483 148.097 213.221 149.325L306.957 306.118C307.919 307.723 308.494 309.518 308.648 311.373L310.374 329.646C310.718 333.751 312.873 337.487 316.248 339.831L434.123 416.221Z" fill="#20B7A1"/>
</g>
<g clip-path="url(#clip3)" filter="url(#filter3_d)">
<path d="M571.89 232.789C569.085 229.558 564.334 229.188 561.085 231.655C557.305 230.683 553.446 232.612 551.862 236.068C546.609 235.299 542.091 239.771 542.816 245.03C539.245 246.65 537.319 250.655 538.426 254.494C535.398 254.449 532.674 256.106 531.294 258.688C525.783 257.899 521.155 262.895 522.405 268.344C518.183 270.864 517.17 276.606 520.475 280.404C515.363 286.03 510.765 292.064 507.099 298.037C506.182 299.532 507.271 301.442 509.003 301.442C509.754 301.442 510.488 301.063 510.91 300.376C514.459 294.593 518.918 288.749 523.879 283.303C526.928 288.945 534.99 288.862 537.934 283.246C542.371 283.682 546.319 280.369 546.648 275.914C549.964 274.543 552.032 271.058 551.484 267.384C553.039 266.575 554.29 265.269 555.032 263.681C560.019 264.281 564.326 260.17 563.915 255.127C570.657 256.258 575.567 248.884 571.993 243.096C574.456 240.136 574.489 235.782 571.89 232.789V232.789Z" fill="#FC93A0"/>
</g>
<g clip-path="url(#clip4)" filter="url(#filter4_d)">
<path d="M477.899 123.432H483.119V103.264C483.119 102.3 483.9 101.518 484.864 101.518C485.828 101.518 486.61 102.3 486.61 103.264V123.432H489.845C490.809 123.432 491.59 124.214 491.59 125.178C491.59 126.142 490.809 126.923 489.845 126.923H477.899C476.935 126.923 476.154 126.142 476.154 125.178C476.154 124.214 476.935 123.432 477.899 123.432V123.432Z" fill="#F0A70A"/>
<path d="M458.894 123.432H464.114V103.264C464.114 102.3 464.895 101.518 465.859 101.518C466.823 101.518 467.605 102.3 467.605 103.264V123.432H470.84C471.804 123.432 472.585 124.214 472.585 125.178C472.585 126.142 471.804 126.923 470.84 126.923H458.894C457.93 126.923 457.148 126.142 457.148 125.178C457.148 124.214 457.93 123.432 458.894 123.432V123.432Z" fill="#F0A70A"/>
<path d="M427.832 32.6739H435.349C438.625 32.6739 441.234 35.3547 441.22 38.6315V38.6943C441.22 38.6943 438.886 46.1481 438.023 56.4177C436.926 69.3821 438.169 86.8333 449.393 99.4396C455.632 106.451 464.61 111.022 474.731 111.022H477.523C491.502 111.022 503.482 102.462 508.507 90.2986C510.136 86.3587 511.034 82.0395 511.034 77.5109L490.032 61.2583L479.359 52.9992C475.547 50.0483 473.097 45.72 472.492 41.0004C472.392 40.2419 472.343 39.4714 472.343 38.6943C472.343 35.3455 471.284 32.2458 469.485 29.7069C467.684 27.1681 465.143 25.1947 462.176 24.0963C461.636 23.8961 461.315 23.3447 461.38 22.7746C462.211 15.4882 456.372 9.24933 449.102 9.52862C441.241 9.83107 435.691 17.7363 438.344 25.3229C438.488 25.737 438.309 26.1956 437.913 26.3887L427.544 31.413C426.908 31.7198 427.127 32.6739 427.832 32.6739V32.6739Z" fill="#F87B67"/>
<path d="M453.235 22.7744C453.17 23.3445 453.491 23.8962 454.031 24.0961C456.998 25.1945 459.539 27.1679 461.341 29.7067C463.139 32.2456 464.198 35.3453 464.198 38.6941C464.198 39.4714 464.247 40.2417 464.347 41.0002C464.952 45.7195 467.403 50.0481 471.215 52.999C472.166 53.7344 477.423 57.8045 483.902 62.8171C495.773 72.0026 511.735 84.3527 512.801 85.1789C516.161 87.7806 517.464 92.0555 516.445 95.9209L521.406 99.7606C521.834 100.091 522.449 100.012 522.779 99.5861C526.252 95.1016 525.43 88.6508 520.946 85.1787C518.747 83.4775 481.056 54.3129 479.36 52.999C475.548 50.0481 473.097 45.7197 472.492 41.0002C472.392 40.2417 472.343 39.4712 472.343 38.6941C472.343 35.3453 471.285 32.2456 469.486 29.7067C467.684 27.1679 465.143 25.1945 462.176 24.0961C461.636 23.8959 461.315 23.3445 461.38 22.7744C462.211 15.488 456.372 9.24912 449.102 9.52841C447.834 9.57725 446.626 9.82398 445.505 10.2358C450.48 12.0533 453.882 17.0961 453.235 22.7744V22.7744Z" fill="#F76C57"/>
<path d="M438.023 56.4177C456.409 71.3021 489.287 61.5305 489.287 61.5305L490.032 61.2583L511.034 77.5109C511.034 82.0395 510.136 86.3587 508.507 90.2986C503.483 102.462 491.502 111.022 477.523 111.022H474.731C464.61 111.022 455.632 106.451 449.393 99.4396C438.169 86.8336 436.926 69.3823 438.023 56.4177V56.4177Z" fill="#766D78"/>
<path d="M456.196 34.4744C454.422 34.4744 452.984 33.0365 452.984 31.2628C452.984 29.489 454.422 28.0511 456.196 28.0511C457.969 28.0511 459.407 29.489 459.407 31.2628C459.407 33.0365 457.969 34.4744 456.196 34.4744Z" fill="#444145"/>
<path d="M489.287 61.5305L490.032 61.2583L509.977 76.693L520.946 85.1798C525.43 88.6517 526.251 95.1016 522.779 99.5856C522.448 100.013 521.834 100.091 521.407 99.7601L508.927 90.1021C508.797 90.0012 508.607 90.053 508.545 90.2057C508.532 90.2367 508.52 90.2676 508.507 90.2984L507.59 90.5591C507.59 90.5591 474.393 100.47 464.775 65.8751L464.626 64.6628C477.81 64.9421 489.287 61.5305 489.287 61.5305V61.5305Z" fill="#544F56"/>
<path d="M483.902 62.8174C495.773 72.0026 511.735 84.3527 512.801 85.1789C516.161 87.7806 517.464 92.0555 516.445 95.9209L521.406 99.7606C521.834 100.091 522.449 100.012 522.779 99.5861C526.252 95.1016 525.43 88.6508 520.946 85.1787L509.978 76.6917C494.49 64.7096 490.032 61.2581 490.032 61.2581C488.366 61.8674 485.542 62.4833 483.902 62.8174V62.8174Z" fill="#444145"/>
<path d="M483.902 62.8174C495.773 72.0026 511.735 84.3527 512.801 85.1789C516.161 87.7806 517.464 92.0555 516.445 95.9209L521.406 99.7606C521.834 100.091 522.449 100.012 522.779 99.5861C526.252 95.1016 525.43 88.6508 520.946 85.1787L509.978 76.6917C494.49 64.7096 490.032 61.2581 490.032 61.2581C488.366 61.8674 485.542 62.4833 483.902 62.8174V62.8174Z" fill="#444145"/>
</g>
<g clip-path="url(#clip5)" filter="url(#filter5_d)">
<path d="M496.764 480.152C496.974 480.463 497.181 480.783 497.386 481.106C497.387 481.108 497.387 481.11 497.389 481.11C497.526 481.326 497.473 481.612 497.267 481.763C497.055 481.92 496.752 482.14 496.364 482.409C489.899 486.902 459.979 505.126 438.521 474.476C438.237 474.072 438.068 473.624 438.003 473.171C437.93 472.667 437.985 472.157 438.156 471.686C438.251 471.42 438.384 471.168 438.552 470.936C438.87 470.493 439.312 470.128 439.861 469.902C447.309 466.849 480.453 455.914 496.764 480.152Z" fill="#24D3B5"/>
<path d="M497.889 480.043C497.817 480.411 497.738 480.784 497.654 481.158C497.654 481.16 497.653 481.161 497.654 481.162C497.598 481.412 497.358 481.577 497.105 481.538C496.844 481.499 496.475 481.441 496.01 481.356C488.262 479.962 454.219 471.692 460.718 434.846C460.804 434.359 461 433.923 461.276 433.557C461.58 433.149 461.98 432.827 462.433 432.615C462.688 432.494 462.96 432.41 463.243 432.364C463.781 432.276 464.353 432.331 464.9 432.559C472.326 435.667 503.494 451.371 497.889 480.043V480.043Z" fill="#24D3B5"/>
<path d="M498.764 480.755C498.453 480.965 498.134 481.172 497.81 481.377C497.808 481.378 497.807 481.378 497.807 481.38C497.59 481.518 497.304 481.464 497.153 481.258C496.996 481.046 496.776 480.743 496.507 480.355C492.014 473.89 473.79 443.971 504.44 422.512C504.844 422.228 505.292 422.059 505.746 421.994C506.249 421.921 506.76 421.976 507.23 422.147C507.496 422.242 507.748 422.375 507.98 422.543C508.423 422.861 508.788 423.304 509.014 423.852C512.067 431.3 523.002 464.444 498.764 480.755Z" fill="#24D3B5"/>
<path d="M497.266 481.763C497.054 481.921 496.751 482.141 496.363 482.409C489.899 486.903 459.979 505.126 438.521 474.477C438.237 474.072 438.067 473.624 438.003 473.171C437.93 472.667 437.985 472.157 438.156 471.686C455.168 492.731 483.238 486.257 497.385 481.107C497.387 481.108 497.387 481.11 497.388 481.11C497.526 481.327 497.472 481.612 497.266 481.763V481.763Z" fill="#20B7A1"/>
<path d="M497.654 481.159V481.162C497.598 481.412 497.358 481.577 497.106 481.537C496.845 481.499 496.475 481.441 496.011 481.357C488.261 479.963 454.22 471.692 460.718 434.847C460.804 434.359 461.001 433.923 461.276 433.556C461.579 433.148 461.98 432.826 462.433 432.615C459.582 459.525 484.009 474.796 497.654 481.159Z" fill="#20B7A1"/>
<path d="M507.23 422.147C486.186 439.16 492.66 467.23 497.81 481.377C497.808 481.378 497.807 481.378 497.807 481.38C497.59 481.518 497.304 481.464 497.153 481.258C496.996 481.046 496.776 480.743 496.507 480.355C492.014 473.89 473.79 443.971 504.44 422.512C504.845 422.228 505.292 422.059 505.746 421.994C506.25 421.921 506.76 421.976 507.23 422.147V422.147Z" fill="#20B7A1"/>
<path d="M507.23 422.147C506.76 421.976 506.25 421.921 505.746 421.994L496.795 478.537L463.243 432.364C462.96 432.41 462.688 432.494 462.433 432.615C461.98 432.827 461.58 433.149 461.276 433.557L494.923 479.86L438.552 470.936C438.384 471.168 438.251 471.42 438.156 471.686C437.985 472.156 437.93 472.667 438.004 473.17L496.364 482.409C496.65 482.211 496.888 482.041 497.079 481.901L497.078 481.902L497.894 481.323C498.189 481.136 498.48 480.946 498.764 480.755L507.98 422.543C507.748 422.375 507.496 422.242 507.23 422.147V422.147Z" fill="#199A8E"/>
</g>
<g clip-path="url(#clip6)">
<path d="M77.487 251.106L82.3633 253.815C83.293 254.331 83.0416 255.718 81.993 255.896C75.1567 257.058 70.1528 261.702 68.7012 263.187C68.4092 263.486 67.9743 263.594 67.5743 263.473C62.2921 261.876 56.3332 253.977 56.3332 253.977L52.4802 249.036L72.1987 248.054L77.487 251.106Z" fill="#A49CA7"/>
<path d="M56.3332 232.974L58.6462 228.605C58.8787 228.166 58.7487 227.622 58.3428 227.335L49.3809 221.009C49.0197 220.754 48.5317 220.771 48.1874 221.048C40.3241 227.38 40.4682 233.427 40.4682 233.427L40.6004 236.173H55.3891L56.3332 232.974Z" fill="#A49CA7"/>
<path d="M41.979 255.639L39.4104 252.436H30.911L33.5175 255.79C33.5175 255.79 39.0744 262.67 46.9692 263.306C47.6088 263.358 47.9885 262.604 47.5694 262.119L41.979 255.639Z" fill="#A49CA7"/>
<path d="M112.641 252.386C111.364 249.26 108.364 243.722 103.044 243.364C102.925 243.357 102.831 243.261 102.828 243.141C102.826 243.021 102.917 242.922 103.035 242.909C108.338 242.348 111.123 236.698 112.28 233.525C112.61 232.622 111.772 231.728 110.849 231.993L87.001 238.959V247.7L111.27 253.973C112.202 254.202 113.005 253.276 112.641 252.386Z" fill="#A49CA7"/>
<path d="M96.9199 244.435C88.7175 248.582 25.6284 265.37 1.23828 247.017C-0.291655 245.865 -0.293855 243.959 1.211 242.765C3.46851 240.972 10.0525 238.429 19.2906 236.425C21.1037 236.031 23.0213 235.657 25.0271 235.315C44.4237 232.003 72.2015 231.55 96.8858 242.794C97.577 243.111 97.5975 244.091 96.9199 244.435V244.435Z" fill="#C2BDC5"/>
<path d="M96.9199 244.435C88.7175 248.583 25.6277 265.371 1.23828 247.017C-0.291655 245.865 -0.293855 243.959 1.211 242.765C2.33744 241.872 4.54281 240.788 7.6183 239.68C27.2551 253.499 69.9805 246.133 91.1176 240.394C93.0554 241.128 94.9796 241.926 96.8858 242.794C97.577 243.111 97.5975 244.09 96.9199 244.435V244.435Z" fill="#B3ADB6"/>
<path d="M12.8824 246.334C14.3089 246.334 15.4653 245.176 15.4653 243.746C15.4653 242.317 14.3089 241.158 12.8824 241.158C11.456 241.158 10.2996 242.317 10.2996 243.746C10.2996 245.176 11.456 246.334 12.8824 246.334Z" fill="#544F56"/>
<path d="M29.9885 239.979C28.5358 237.885 26.743 236.382 25.0271 235.315C23.0213 235.657 21.1039 236.031 19.2906 236.425C27.8197 238.883 31.1566 246.845 28.8575 255.226C30.0088 255.296 31.1693 255.346 32.3411 255.38C32.3704 255.274 32.45 254.995 32.4702 254.888C33.5582 248.941 32.7241 243.925 29.9885 239.979Z" fill="#A49CA7"/>
<path d="M35.3303 301.419L30.4541 304.128C29.5243 304.644 29.7758 306.031 30.8243 306.209C37.6607 307.371 42.6645 312.015 44.1161 313.5C44.4081 313.799 44.843 313.907 45.243 313.786C50.5252 312.189 56.4841 304.29 56.4841 304.29L60.3371 299.349L40.6187 298.367L35.3303 301.419Z" fill="#A49CA7"/>
<path d="M56.4841 283.287L54.1712 278.918C53.9386 278.479 54.0687 277.935 54.4746 277.648L63.4366 271.322C63.7978 271.067 64.2856 271.084 64.6301 271.362C72.4934 277.693 72.3493 283.74 72.3493 283.74L72.2171 286.487H57.4284L56.4841 283.287Z" fill="#A49CA7"/>
<path d="M70.8384 305.952L73.407 302.749H81.9063L79.2999 306.103C79.2999 306.103 73.7429 312.983 65.8481 313.619C65.2086 313.671 64.8288 312.917 65.248 312.431L70.8384 305.952Z" fill="#A49CA7"/>
<path d="M0.17587 302.699C1.45324 299.573 4.45349 294.035 9.77307 293.678C9.89232 293.67 9.9867 293.574 9.9889 293.454C9.9911 293.334 9.90068 293.235 9.78187 293.222C4.47967 292.661 1.69393 287.011 0.536904 283.838C0.207552 282.935 1.04578 282.041 1.96806 282.306L25.8161 289.272V298.013L1.5474 304.286C0.615667 304.515 -0.187583 303.589 0.17587 302.699V302.699Z" fill="#A49CA7"/>
<path d="M15.8974 294.748C24.0998 298.895 87.1889 315.683 111.579 297.33C113.109 296.178 113.111 294.272 111.606 293.078C109.349 291.285 102.765 288.742 93.5267 286.738C91.7136 286.344 89.796 285.97 87.7902 285.628C68.3936 282.316 40.6158 281.863 15.9315 293.107C15.2403 293.424 15.2198 294.404 15.8974 294.748V294.748Z" fill="#C2BDC5"/>
<path d="M15.8974 294.748C24.0998 298.896 87.1896 315.684 111.579 297.33C113.109 296.178 113.111 294.272 111.606 293.078C110.48 292.185 108.275 291.101 105.199 289.993C85.5622 303.812 42.8368 296.446 21.6997 290.707C19.7619 291.441 17.8377 292.239 15.9315 293.107C15.2403 293.424 15.2198 294.404 15.8974 294.748Z" fill="#B3ADB6"/>
<path d="M99.9349 296.647C101.361 296.647 102.518 295.489 102.518 294.059C102.518 292.63 101.361 291.471 99.9349 291.471C98.5084 291.471 97.352 292.63 97.352 294.059C97.352 295.489 98.5084 296.647 99.9349 296.647Z" fill="#544F56"/>
<path d="M80.3471 305.201C80.3673 305.308 80.447 305.586 80.4762 305.693C81.648 305.659 82.8083 305.609 83.9599 305.539C81.6608 297.158 84.9976 289.196 93.5267 286.738C91.7136 286.344 89.796 285.97 87.7902 285.628C86.0746 286.695 84.2817 288.198 82.8288 290.292C80.0932 294.238 79.2592 299.254 80.3471 305.201Z" fill="#A49CA7"/>
</g>
<defs>
<filter id="filter0_d" x="57.9615" y="350.625" width="177.76" height="152.375" filterUnits="userSpaceOnUse" color-interpolation-filters="sRGB">
<feFlood flood-opacity="0" result="BackgroundImageFix"/>
<feColorMatrix in="SourceAlpha" type="matrix" values="0 0 0 0 0 0 0 0 0 0 0 0 0 0 0 0 0 0 127 0"/>
<feOffset dy="4"/>
<feGaussianBlur stdDeviation="2"/>
<feColorMatrix type="matrix" values="0 0 0 0 0 0 0 0 0 0 0 0 0 0 0 0 0 0 0.25 0"/>
<feBlend mode="normal" in2="BackgroundImageFix" result="effect1_dropShadow"/>
<feBlend mode="normal" in="SourceGraphic" in2="effect1_dropShadow" result="shape"/>
</filter>
<filter id="filter1_d" x="64.3077" y="0" width="98.4327" height="98.4327" filterUnits="userSpaceOnUse" color-interpolation-filters="sRGB">
<feFlood flood-opacity="0" result="BackgroundImageFix"/>
<feColorMatrix in="SourceAlpha" type="matrix" values="0 0 0 0 0 0 0 0 0 0 0 0 0 0 0 0 0 0 127 0"/>
<feOffset dy="4"/>
<feGaussianBlur stdDeviation="2"/>
<feColorMatrix type="matrix" values="0 0 0 0 0 0 0 0 0 0 0 0 0 0 0 0 0 0 0.25 0"/>
<feBlend mode="normal" in2="BackgroundImageFix" result="effect1_dropShadow"/>
<feBlend mode="normal" in="SourceGraphic" in2="effect1_dropShadow" result="shape"/>
</filter>
<filter id="filter2_d" x="80.1731" y="15.8654" width="434.779" height="434.779" filterUnits="userSpaceOnUse" color-interpolation-filters="sRGB">
<feFlood flood-opacity="0" result="BackgroundImageFix"/>
<feColorMatrix in="SourceAlpha" type="matrix" values="0 0 0 0 0 0 0 0 0 0 0 0 0 0 0 0 0 0 127 0"/>
<feOffset dy="4"/>
<feGaussianBlur stdDeviation="2"/>
<feColorMatrix type="matrix" values="0 0 0 0 0 0 0 0 0 0 0 0 0 0 0 0 0 0 0.25 0"/>
<feBlend mode="normal" in2="BackgroundImageFix" result="effect1_dropShadow"/>
<feBlend mode="normal" in="SourceGraphic" in2="effect1_dropShadow" result="shape"/>
</filter>
<filter id="filter3_d" x="500.606" y="230.048" width="79.3942" height="79.3942" filterUnits="userSpaceOnUse" color-interpolation-filters="sRGB">
<feFlood flood-opacity="0" result="BackgroundImageFix"/>
<feColorMatrix in="SourceAlpha" type="matrix" values="0 0 0 0 0 0 0 0 0 0 0 0 0 0 0 0 0 0 127 0"/>
<feOffset dy="4"/>
<feGaussianBlur stdDeviation="2"/>
<feColorMatrix type="matrix" values="0 0 0 0 0 0 0 0 0 0 0 0 0 0 0 0 0 0 0.25 0"/>
<feBlend mode="normal" in2="BackgroundImageFix" result="effect1_dropShadow"/>
<feBlend mode="normal" in="SourceGraphic" in2="effect1_dropShadow" result="shape"/>
</filter>
<filter id="filter4_d" x="413.346" y="9.51923" width="125.404" height="125.404" filterUnits="userSpaceOnUse" color-interpolation-filters="sRGB">
<feFlood flood-opacity="0" result="BackgroundImageFix"/>
<feColorMatrix in="SourceAlpha" type="matrix" values="0 0 0 0 0 0 0 0 0 0 0 0 0 0 0 0 0 0 127 0"/>
<feOffset dy="4"/>
<feGaussianBlur stdDeviation="2"/>
<feColorMatrix type="matrix" values="0 0 0 0 0 0 0 0 0 0 0 0 0 0 0 0 0 0 0.25 0"/>
<feBlend mode="normal" in2="BackgroundImageFix" result="effect1_dropShadow"/>
<feBlend mode="normal" in="SourceGraphic" in2="effect1_dropShadow" result="shape"/>
</filter>
<filter id="filter5_d" x="433.971" y="418.846" width="84.1538" height="84.1538" filterUnits="userSpaceOnUse" color-interpolation-filters="sRGB">
<feFlood flood-opacity="0" result="BackgroundImageFix"/>
<feColorMatrix in="SourceAlpha" type="matrix" values="0 0 0 0 0 0 0 0 0 0 0 0 0 0 0 0 0 0 127 0"/>
<feOffset dy="4"/>
<feGaussianBlur stdDeviation="2"/>
<feColorMatrix type="matrix" values="0 0 0 0 0 0 0 0 0 0 0 0 0 0 0 0 0 0 0.25 0"/>
<feBlend mode="normal" in2="BackgroundImageFix" result="effect1_dropShadow"/>
<feBlend mode="normal" in="SourceGraphic" in2="effect1_dropShadow" result="shape"/>
</filter>
<clipPath id="clip0">
<rect width="169.76" height="144.375" fill="white" transform="translate(61.9615 350.625)"/>
</clipPath>
<clipPath id="clip1">
<rect width="90.4327" height="90.4327" fill="white" transform="translate(68.3077)"/>
</clipPath>
<clipPath id="clip2">
<rect width="426.779" height="426.779" fill="white" transform="translate(84.1731 15.8654)"/>
</clipPath>
<clipPath id="clip3">
<rect width="71.3942" height="71.3942" fill="white" transform="translate(504.606 230.048)"/>
</clipPath>
<clipPath id="clip4">
<rect width="117.404" height="117.404" fill="white" transform="matrix(-1 0 0 1 534.75 9.51923)"/>
</clipPath>
<clipPath id="clip5">
<rect width="76.1538" height="76.1538" fill="white" transform="translate(437.971 418.846)"/>
</clipPath>
<clipPath id="clip6">
<rect width="112.644" height="112.644" fill="white" transform="translate(0.0865479 211.01)"/>
</clipPath>
</defs>
</svg>
