<svg width="56" height="55" viewBox="0 0 56 55" fill="none" xmlns="http://www.w3.org/2000/svg">
<g clip-path="url(#clip0)" filter="url(#filter0_d)">
<path d="M41.0575 38.6411C41.1894 38.8375 41.3203 39.0387 41.4493 39.2428C41.4502 39.2438 41.4502 39.2448 41.4513 39.2448C41.5379 39.3815 41.5042 39.5615 41.3742 39.6568C41.2404 39.7559 41.0498 39.8946 40.8052 40.064C36.7303 42.8961 17.8719 54.3825 4.3467 35.0639C4.16763 34.8088 4.06076 34.5267 4.02035 34.2409C3.97413 33.9232 4.00882 33.6017 4.11663 33.3053C4.17635 33.1377 4.26007 32.9789 4.36601 32.8326C4.56626 32.5534 4.84545 32.3233 5.19101 32.1808C9.88582 30.2564 30.7764 23.3638 41.0575 38.6411Z" fill="#24D3B5"/>
<path d="M41.7666 38.5727C41.7211 38.8048 41.6714 39.0396 41.6182 39.2751C41.6182 39.2766 41.6176 39.2772 41.6182 39.2779C41.5828 39.4357 41.4318 39.5392 41.2724 39.5148C41.1077 39.4902 40.8749 39.4535 40.5822 39.4004C35.6982 38.5216 14.2412 33.3088 18.3377 10.0848C18.3915 9.77775 18.5153 9.50278 18.689 9.27206C18.8809 9.01481 19.1328 8.81193 19.4186 8.67853C19.5793 8.60231 19.7508 8.54915 19.9292 8.52056C20.2682 8.46478 20.6283 8.49947 20.9734 8.64309C25.6538 10.6021 45.2995 20.5002 41.7666 38.5727Z" fill="#24D3B5"/>
<path d="M42.3182 39.0216C42.1218 39.1535 41.9206 39.2843 41.7165 39.4133C41.7155 39.4143 41.7145 39.4143 41.7145 39.4153C41.5778 39.5019 41.3978 39.4683 41.3025 39.3383C41.2034 39.2045 41.0647 39.0139 40.8953 38.7693C38.0632 34.6943 26.5768 15.836 45.8954 2.31075C46.1505 2.13169 46.4326 2.02481 46.7184 1.98441C47.036 1.93819 47.3576 1.97287 47.654 2.08069C47.8216 2.14041 47.9804 2.22412 48.1267 2.33006C48.4059 2.53031 48.636 2.8095 48.7785 3.15506C50.7029 7.84987 57.5955 28.7404 42.3182 39.0216Z" fill="#24D3B5"/>
<path d="M41.3738 39.6569C41.24 39.7561 41.0493 39.8947 40.8048 40.0641C36.73 42.8963 17.8716 54.3826 4.3463 35.0641C4.16724 34.809 4.06036 34.5269 4.01996 34.2411C3.97374 33.9233 4.00843 33.6019 4.11624 33.3053C14.8393 46.5698 32.5319 42.4891 41.4489 39.243C41.4498 39.2439 41.4498 39.245 41.4509 39.245C41.5375 39.3816 41.5037 39.5616 41.3738 39.6569Z" fill="#20B7A1"/>
<path d="M41.6183 39.2757V39.2777C41.5827 39.4356 41.4316 39.5395 41.2728 39.5145C41.1081 39.4904 40.8752 39.4538 40.5825 39.4009C35.698 38.522 14.2414 33.3092 18.3375 10.0852C18.3914 9.77803 18.5155 9.50278 18.6889 9.27169C18.8804 9.01462 19.1327 8.81156 19.4185 8.67872C17.6213 25.6397 33.018 35.2653 41.6183 39.2757Z" fill="#20B7A1"/>
<path d="M47.6541 2.08069C34.3897 12.8037 38.4704 30.4963 41.7165 39.4133C41.7155 39.4143 41.7145 39.4143 41.7145 39.4153C41.5778 39.5019 41.3978 39.4683 41.3025 39.3383C41.2034 39.2045 41.0647 39.0139 40.8953 38.7693C38.0632 34.6943 26.5768 15.836 45.8954 2.31075C46.1505 2.13169 46.4326 2.02481 46.7184 1.98441C47.0361 1.93819 47.3577 1.97287 47.6541 2.08069Z" fill="#20B7A1"/>
<path d="M47.6541 2.08069C47.3577 1.97287 47.0361 1.93819 46.7185 1.98441L41.0768 37.6234L19.9292 8.52056C19.7508 8.54916 19.5793 8.60222 19.4186 8.67853C19.1328 8.81194 18.8808 9.01481 18.6889 9.27206L39.897 38.4574L4.36601 32.8325C4.26016 32.9788 4.17635 33.1376 4.11673 33.3052C4.00891 33.6016 3.97423 33.9232 4.02045 34.2408L40.8053 40.0639C40.9852 39.9393 41.1353 39.8317 41.2557 39.7438L41.2555 39.7441L41.7694 39.3793C41.9553 39.2613 42.1389 39.1418 42.3182 39.0215L48.1268 2.32997C47.9805 2.22412 47.8217 2.14031 47.6541 2.08069Z" fill="#199A8E"/>
</g>
<defs>
<filter id="filter0_d" x="0" y="0" width="56" height="56" filterUnits="userSpaceOnUse" color-interpolation-filters="sRGB">
<feFlood flood-opacity="0" result="BackgroundImageFix"/>
<feColorMatrix in="SourceAlpha" type="matrix" values="0 0 0 0 0 0 0 0 0 0 0 0 0 0 0 0 0 0 127 0"/>
<feOffset dy="4"/>
<feGaussianBlur stdDeviation="2"/>
<feColorMatrix type="matrix" values="0 0 0 0 0 0 0 0 0 0 0 0 0 0 0 0 0 0 0.25 0"/>
<feBlend mode="normal" in2="BackgroundImageFix" result="effect1_dropShadow"/>
<feBlend mode="normal" in="SourceGraphic" in2="effect1_dropShadow" result="shape"/>
</filter>
<clipPath id="clip0">
<rect width="48" height="48" fill="white" transform="translate(4)"/>
</clipPath>
</defs>
</svg>