<svg id="Layer_1" enable-background="new 0 0 512 512" height="512" viewBox="0 0 512 512" width="512" xmlns="http://www.w3.org/2000/svg"><path d="m430.691 355.366 7.102-8.224c3.181-3.683 3.406-9.071.544-13.007l-19.268-26.493c-2.438-3.353-6.334-5.336-10.479-5.336h-13.475c-2.462 0-4.457-1.996-4.457-4.457v-29.476c0-3.892-4.638-5.915-7.49-3.266l-10.852 10.077c-.824.766-1.908 1.191-3.033 1.191h-19.725c-2.462 0-4.457-1.996-4.457-4.457v-6.505c0-2.462-1.996-4.457-4.457-4.457h-19.78c-3.039 0-4.794-3.447-3.006-5.904l2.578-3.543 2.135-2.652c1.122-1.483 1.226-3.562.144-5.174l-23.074-27.646c-.891-1.327-1.004-3.03-.294-4.463l32.996-66.652c.572-1.156 1.617-2.008 2.865-2.334 60.022-15.72 56.547-14.917 57.559-14.883l15.522.517c2.611.087 4.737-2.08 4.6-4.689l-3.102-15.017c-.116-2.213-1.841-4.004-4.048-4.205l-11.495-1.045c-3.439-.313-5.232-4.249-3.21-7.049l10.433-14.445c1.656-2.293.785-5.528-1.797-6.68l-37.985-16.947c-1.567-.699-3.396-.437-4.703.674l-10.452 8.884c-.912.775-2.098 1.151-3.29 1.043l-19.257-1.751c-1.277-.116-2.441-.776-3.197-1.812l-36.21-49.621c-.297-.407-.66-.76-1.075-1.046l-19.976-13.732c-1.152-.792-2.609-.998-3.935-.556l-6.906 2.302c-2.84.947-3.958 4.367-2.225 6.808l9.882 13.925c1.203 1.695 1.075 3.996-.309 5.547l-37.736 42.291c-.363.407-.798.744-1.283.994l-42.713 22.024c-.912.47-1.634 1.241-2.044 2.182l-16.978 38.986c-.78 1.792-2.637 2.866-4.579 2.65l-5.942-.66c-2.009-.223-3.616-1.77-3.916-3.769l-1.152-7.682c-.267-1.783-1.583-3.229-3.332-3.664l-13.317-3.311-9.99-2.912c-3.301-.962-4.316-5.142-1.823-7.511l4.69-4.456c1.959-1.861 1.825-5.024-.285-6.712l-18.049-16.03c-1.952-1.562-4.807-1.213-6.325.773l-22.682 29.661c-1.133 1.481-1.224 3.511-.228 5.088l24.639 34.783c1.474 2.334.494 5.433-2.054 6.495l-7.074 2.948c-2.548 1.062-3.528 4.161-2.054 6.495l8.318 12.663c.899 1.423 2.523 2.219 4.198 2.056l16.187-1.566c1.715-.166 3.371.671 4.255 2.149l112.454 188.105c1.147 1.919 1.84 4.075 2.026 6.303l2.07 21.922c.41 4.921 2.996 9.402 7.051 12.221l154.119 99.877c2.145 1.49 5.106.826 6.408-1.438l28.498-49.562c.815-1.417.789-3.166-.068-4.558l-14.528-23.607c-.581-.945-.79-2.072-.584-3.163l13.475-71.42c.147-.774.494-1.494 1.007-2.089z" fill="#24d3b5"/><path d="m419.83 480.301-16.936 29.463c-1.308 2.266-4.265 2.926-6.408 1.442l-154.125-99.886c-4.049-2.812-6.634-7.294-7.047-12.218l-2.071-21.922c-.185-2.225-.876-4.378-2.029-6.305l-112.454-188.101c-.886-1.473-2.534-2.318-4.255-2.153l-16.184 1.566c-1.679.165-3.297-.628-4.203-2.05l-8.313-12.661c-1.473-2.339-.494-5.439 2.05-6.5l7.077-2.946c2.545-1.061 3.534-4.162 2.06-6.49l-24.642-34.79c-.999-1.576-.907-3.606.227-5.089l16.885-22.077 19.738 27.856c1.473 2.339.494 5.429-2.05 6.49l-7.077 2.956c-2.545 1.061-3.534 4.152-2.05 6.49l32.152 24.096c.907 1.422 2.524 2.215 4.203 2.05l16.184-1.566c1.72-.165 3.369.68 4.255 2.153l112.453 188.102c1.154 1.926 1.844 4.079 2.029 6.305l2.071 21.922c.412 4.924 2.998 9.406 7.047 12.218z" fill="#20b7a1"/></svg>