<svg width="107" height="99" viewBox="0 0 107 99" fill="none" xmlns="http://www.w3.org/2000/svg">
<g clip-path="url(#clip0)" filter="url(#filter0_d)">
<path d="M68.2526 0.359185C58.944 9.4487 68.0133 14.7642 68.0133 14.7642H70.3836V1.03173C70.3834 0.0748098 68.9912 -0.362239 68.2526 0.359185Z" fill="#D8CECC"/>
<path d="M88.6046 0.359183C87.8658 -0.362064 86.4736 0.0748075 86.4736 1.03191V14.7644H88.8439C88.8439 14.7642 97.9132 9.44852 88.6046 0.359183Z" fill="#D8CECC"/>
<path d="M89.0704 16.6308V65.022C89.0704 70.0407 85.9573 75.2773 80.2586 75.8961V89.169C80.2586 90.1798 79.2941 91 78.1056 91H75.0979C73.9094 91 72.9449 90.1798 72.9449 89.169V75.9786H36.4274V89.169C36.4274 90.1798 35.463 91 34.2745 91H31.2691C30.0806 91 29.1161 90.1798 29.1161 89.169V55.1439H57.7629C59.44 55.1439 61.018 54.7941 62.4067 54.1734C65.6016 52.7489 67.7803 49.9 67.7803 46.6169V16.781C67.7803 11.8152 72.4091 7.66265 78.2456 7.58018C84.2092 7.49611 89.0704 11.5792 89.0704 16.6308Z" fill="#EBE0DA"/>
<path d="M82.2113 8.16796C78.166 9.48995 75.3157 12.8845 75.3157 16.781V46.6169C75.3157 49.8998 73.1368 52.7489 69.942 54.1734C68.5533 54.7941 66.9753 55.1439 65.2982 55.1439H57.7631C59.4402 55.1439 61.0182 54.7941 62.4069 54.1734C65.6019 52.7489 67.7805 49.9 67.7805 46.6169V16.781C67.7805 11.8152 72.4093 7.66266 78.2458 7.58019C79.645 7.56011 80.9821 7.77072 82.2113 8.16796Z" fill="#D8CECC"/>
<path d="M21.6305 55.1433C19.0067 55.1433 16.5771 56.3206 15.2375 58.2412C13.9154 60.1366 13.8669 63.6682 15.0032 65.6073C15.3624 66.2204 16.3708 66.267 16.7879 65.681C17.819 64.232 20.038 61.8724 24.1235 60.6392C25.7247 60.156 35.0463 59.9361 36.7451 59.9361V55.1433H21.6305Z" fill="#EBE0DA"/>
<path d="M79.6435 23.9255L81.0036 21.9201C81.5429 21.1248 80.8681 20.1312 79.7885 20.1312H77.0684C75.989 20.1312 75.314 21.125 75.8534 21.9201L77.2134 23.9255C77.7532 24.7212 79.1037 24.7212 79.6435 23.9255Z" fill="#766D78"/>
<path d="M82.9373 25.1219C82.0454 25.1219 81.3227 25.7366 81.3227 26.495C81.3227 27.3453 80.8145 28.0964 80.0431 28.5397V22.0405C80.0431 21.2821 79.3202 20.6673 78.4285 20.6673C77.5368 20.6673 76.8139 21.2821 76.8139 22.0405V28.5397C76.0425 28.0964 75.5343 27.3453 75.5343 26.495C75.5343 25.7366 74.8114 25.1219 73.9197 25.1219C70.588 25.1219 72.5594 31.7066 78.4285 31.7066C84.2907 31.7066 86.2834 25.1219 82.9373 25.1219Z" fill="#766D78"/>
<path d="M72.6072 18.5844H67.7809C66.889 18.5844 66.1663 17.9696 66.1663 17.2112C66.1663 16.4529 66.8892 15.8381 67.7809 15.8381H72.6072C73.4992 15.8381 74.2218 16.4529 74.2218 17.2112C74.2218 17.9696 73.499 18.5844 72.6072 18.5844Z" fill="#766D78"/>
<path d="M89.0719 18.5844H84.2458C83.3538 18.5844 82.6312 17.9696 82.6312 17.2112C82.6312 16.4529 83.354 15.8381 84.2458 15.8381H89.0721C89.964 15.8381 90.6867 16.4529 90.6867 17.2112C90.6867 17.9696 89.9638 18.5844 89.0719 18.5844Z" fill="#766D78"/>
<path d="M62.4067 54.1734V63.202C62.4067 66.7229 59.0502 69.5775 54.9102 69.5775H43.9239C39.7839 69.5775 36.4274 66.7229 36.4274 63.202V55.1439H57.7629C59.44 55.1439 61.018 54.7941 62.4067 54.1734Z" fill="#24D3B5"/>
<path d="M80.2586 83.9507V89.169C80.2586 90.1798 79.2941 91 78.1056 91H75.0979C73.9094 91 72.9449 90.1798 72.9449 89.169V83.9507H80.2586Z" fill="#A49CA7"/>
<path d="M51.459 69.5775H43.9239C39.7839 69.5775 36.4274 66.7229 36.4274 63.202V55.1439H43.9626V63.202C43.9626 66.7229 47.3191 69.5775 51.459 69.5775Z" fill="#20B7A1"/>
<path d="M36.4295 55.1439V75.9786H36.4274V89.169C36.4274 90.1798 35.463 91 34.2745 91H31.2691C30.0806 91 29.1161 90.1798 29.1161 89.169V55.1439H36.4295Z" fill="#D8CECC"/>
<path d="M29.1161 83.9507H36.4274V89.169C36.4274 90.1798 35.463 91 34.2745 91H31.2691C30.0806 91 29.1161 90.1798 29.1161 89.169V83.9507Z" fill="#A49CA7"/>
</g>
<defs>
<filter id="filter0_d" x="-4" y="0" width="115" height="99" filterUnits="userSpaceOnUse" color-interpolation-filters="sRGB">
<feFlood flood-opacity="0" result="BackgroundImageFix"/>
<feColorMatrix in="SourceAlpha" type="matrix" values="0 0 0 0 0 0 0 0 0 0 0 0 0 0 0 0 0 0 127 0"/>
<feOffset dy="4"/>
<feGaussianBlur stdDeviation="2"/>
<feColorMatrix type="matrix" values="0 0 0 0 0 0 0 0 0 0 0 0 0 0 0 0 0 0 0.25 0"/>
<feBlend mode="normal" in2="BackgroundImageFix" result="effect1_dropShadow"/>
<feBlend mode="normal" in="SourceGraphic" in2="effect1_dropShadow" result="shape"/>
</filter>
<clipPath id="clip0">
<rect width="107" height="91" fill="white"/>
</clipPath>
</defs>
</svg>
